<svg width="760" height="127" viewBox="0 0 760 127" fill="none" xmlns="http://www.w3.org/2000/svg">
	<g clip-path="url(#clip0_638_411)">
	<path d="M63.49 29.87L93.42 0H0L3.81 3.11L17.07 13.96L24.88 20.35C28.06 22.95 29.91 26.85 29.91 30.96V63.31L62.86 30.5L63.5 29.87H63.49Z" fill="#4F75F2"/>
	<path d="M62.86 96.1398L29.9 63.3198V95.6698C29.9 99.7798 28.05 103.68 24.87 106.28L17.06 112.67L3.79999 123.52L-0.0100098 126.63H93.41L63.49 96.7598L62.85 96.1298L62.86 96.1398Z" fill="#4F75F2"/>
	<path d="M103.85 28.8399L72.67 59.9299C70.82 61.7699 70.82 64.7699 72.67 66.6099L103.85 97.7799C109.92 103.85 120.29 99.5499 120.29 90.9699V35.6599C120.29 27.0799 109.93 22.7799 103.86 28.8399H103.85Z" fill="#D89F42"/>
	<path d="M201.02 32.27V58.3L229.96 34.91C230.96 34.1 231.84 33.22 232.59 32.28H256.36C256.17 32.59 255.92 32.89 255.61 33.17C255.3 33.45 254.98 33.72 254.67 33.97L219.72 61.03C219.34 61.34 219.16 61.69 219.16 62.06C219.16 62.43 219.35 62.78 219.72 63.09L257.21 93.44C257.65 93.82 258.07 94.19 258.48 94.57C258.89 94.95 259.28 95.35 259.65 95.79H234.28C233.65 95.04 232.71 94.16 231.46 93.16L201.02 67.7V95.79H183.83V32.28H201.02V32.27Z" fill="#222D47"/>
	<path d="M281.91 95.78C278.03 95.78 274.75 95.36 272.09 94.51C269.43 93.66 267.3 92.38 265.7 90.66C264.1 88.94 262.96 86.78 262.27 84.18C261.58 81.58 261.24 78.56 261.24 75.11V32.27H278.34V73.52C278.34 75.84 278.73 77.42 279.51 78.26C280.29 79.1 281.78 79.53 283.97 79.53H328.03V95.78H281.9H281.91Z" fill="#222D47"/>
	<path d="M351.81 32.27V95.78H334.71V32.27H351.81Z" fill="#222D47"/>
	<path d="M446.24 32.27C445.68 33.02 445.05 33.71 444.36 34.34L415.89 61.87L448.02 93.81C448.33 94.12 448.61 94.45 448.87 94.8C449.12 95.14 449.37 95.47 449.62 95.79H425.29C424.85 95.1 424.35 94.47 423.79 93.91L403.59 72.86L382.26 93.91C381.95 94.22 381.65 94.54 381.37 94.85C381.09 95.16 380.82 95.48 380.57 95.79H358.21C358.46 95.41 358.71 95.08 358.96 94.8C359.21 94.52 359.52 94.19 359.9 93.81L392.69 61.87L364.32 34.34C363.57 33.71 362.97 33.02 362.53 32.27H386.21C386.65 32.96 387.18 33.65 387.81 34.34L404.63 51.44L422.39 34.34C422.77 34.03 423.1 33.68 423.38 33.31C423.66 32.93 423.93 32.59 424.18 32.28H446.26L446.24 32.27Z" fill="#222D47"/>
	<path d="M472.54 95.78C468.66 95.78 465.38 95.36 462.72 94.51C460.06 93.66 457.93 92.38 456.33 90.66C454.73 88.94 453.59 86.78 452.9 84.18C452.21 81.58 451.87 78.56 451.87 75.11V32.27H468.97V73.52C468.97 75.84 469.36 77.42 470.14 78.26C470.92 79.1 472.41 79.53 474.6 79.53H518.66V95.78H472.53H472.54Z" fill="#222D47"/>
	<path d="M591.96 32.2703V49.0903H543.67C542.67 49.0903 542.17 49.6203 542.17 50.6903V57.9203H591.68V70.1303H542.17V77.8303C542.17 78.9603 542.67 79.5203 543.67 79.5203H591.96V95.7703H534.08C528.13 95.7703 525.15 92.8303 525.15 86.9403V40.8103C525.15 35.1103 528.16 32.2603 534.17 32.2603H591.95L591.96 32.2703Z" fill="#222D47"/>
	<path d="M681.21 92.9601C681.46 93.4601 681.66 93.9301 681.82 94.3701C681.98 94.8101 682.12 95.2801 682.24 95.7801H663.07C662.94 95.3401 662.82 94.9501 662.69 94.6101C662.57 94.2701 662.44 93.9401 662.31 93.6201L658.93 85.9201H621.35L618.06 93.5301C617.93 93.9101 617.81 94.2801 617.68 94.6601C617.56 95.0401 617.46 95.4101 617.4 95.7901H597.76C597.88 95.2901 598.03 94.8201 598.18 94.3801C598.33 93.9401 598.54 93.4701 598.79 92.9701L621.53 42.6101C623.34 38.6601 625.73 35.7201 628.67 33.7801C631.62 31.8401 635.37 30.8701 639.95 30.8701C644.53 30.8701 648.11 31.8401 651.08 33.7801C654.05 35.7201 656.45 38.6701 658.27 42.6101L681.2 92.9701L681.21 92.9601ZM652.74 71.9101L642.97 49.1701C642.66 48.4801 642.25 47.9801 641.75 47.6701C641.25 47.3601 640.68 47.2001 640.06 47.2001C639.5 47.2001 638.96 47.3401 638.46 47.6201C637.96 47.9001 637.55 48.4201 637.24 49.1701L627.56 71.9101H652.74Z" fill="#222D47"/>
	<path d="M726.12 32.2703C731.25 32.2703 735.75 33.0103 739.6 34.4803C743.45 35.9503 746.79 38.0003 749.61 40.6303C752.81 43.5803 755.31 47.0503 757.13 51.0603C758.95 55.0703 759.85 59.3903 759.85 64.0303C759.85 68.2303 759.13 72.1403 757.69 75.7703C756.25 79.4003 754.24 82.6303 751.68 85.4503C748.74 88.6403 745.17 91.1703 740.97 93.0103C736.77 94.8603 731.82 95.7803 726.12 95.7803H691.83C689.07 95.7803 687.7 94.4303 687.7 91.7403V36.2103C687.7 33.5803 689.08 32.2603 691.83 32.2603H726.12V32.2703ZM705.92 49.0903C705.11 49.0903 704.7 49.5303 704.7 50.4103V77.7503C704.7 78.6303 705.11 79.0703 705.92 79.0703H726.12C729.13 79.0703 731.66 78.6303 733.73 77.7503C735.8 76.8703 737.52 75.6803 738.9 74.1803C740.15 72.8603 741.12 71.3503 741.81 69.6203C742.5 67.9003 742.85 66.0703 742.85 64.1203C742.85 61.9903 742.43 59.9903 741.58 58.1103C740.73 56.2303 739.59 54.6003 738.15 53.2203C736.77 51.9703 735.14 50.9703 733.27 50.2103C731.4 49.4503 729.01 49.0803 726.13 49.0803H705.93L705.92 49.0903Z" fill="#222D47"/>
	</g>
	<defs>
	<clipPath id="clip0_638_411">
	<rect width="759.85" height="126.64" fill="white"/>
	</clipPath>
	</defs>
	</svg>
	