<?xml version="1.0" encoding="utf-8"?>
<!-- Generator: Adobe Illustrator 27.1.1, SVG Export Plug-In . SVG Version: 6.00 Build 0)  -->
<svg version="1.1" id="Layer_1" xmlns="http://www.w3.org/2000/svg" xmlns:xlink="http://www.w3.org/1999/xlink" x="0px" y="0px"
	 viewBox="0 0 763.26 131.74" style="enable-background:new 0 0 763.26 131.74;" xml:space="preserve">
<style type="text/css">
	.st0{fill:#4F75F2;}
	.st1{fill:#D89F42;}
	.st2{fill:#FFFFFF;}
</style>
<g>
	<path class="st0" d="M65.2,32.42L95.12,2.55H1.71l3.81,3.11l13.26,10.85l7.81,6.39c3.18,2.6,5.03,6.5,5.03,10.61v32.35l32.95-32.82
		L65.2,32.42z"/>
	<path class="st0" d="M64.56,98.69L31.61,65.87v32.35c0,4.11-1.85,8.01-5.03,10.61l-7.81,6.39L5.51,126.08l-3.81,3.11h93.42
		L65.2,99.32L64.56,98.69z"/>
	<path class="st1" d="M105.56,31.39L74.37,62.48c-1.85,1.84-1.85,4.84,0,6.68l31.18,31.17c6.07,6.07,16.44,1.77,16.44-6.81V38.21
		C121.99,29.64,111.63,25.34,105.56,31.39z"/>
	<g>
		<path class="st2" d="M202.72,34.82v26.03l28.94-23.39c1-0.81,1.88-1.69,2.63-2.63h23.77c-0.19,0.31-0.44,0.61-0.75,0.89
			c-0.31,0.28-0.63,0.55-0.94,0.8l-34.95,27.06c-0.38,0.31-0.56,0.66-0.56,1.03c0,0.38,0.19,0.72,0.56,1.03l37.49,30.35
			c0.44,0.38,0.86,0.75,1.27,1.13c0.41,0.38,0.8,0.78,1.17,1.22h-25.37c-0.63-0.75-1.57-1.63-2.82-2.63l-30.44-25.46v28.09h-17.19
			V34.82H202.72z"/>
		<path class="st2" d="M283.62,98.33c-3.88,0-7.16-0.42-9.82-1.27s-4.79-2.13-6.39-3.85s-2.74-3.88-3.43-6.48
			c-0.69-2.6-1.03-5.62-1.03-9.07V34.82h17.1v41.25c0,2.32,0.39,3.9,1.17,4.74s2.27,1.27,4.46,1.27h44.06v16.25H283.62z"/>
		<path class="st2" d="M353.52,34.82v63.51h-17.1V34.82H353.52z"/>
		<path class="st2" d="M447.94,34.82c-0.56,0.75-1.19,1.44-1.88,2.07l-28.47,27.53l32.13,31.94c0.31,0.31,0.59,0.64,0.85,0.99
			c0.25,0.34,0.5,0.67,0.75,0.99h-24.33c-0.44-0.69-0.94-1.32-1.5-1.88l-20.2-21.05l-21.33,21.05c-0.31,0.31-0.61,0.63-0.89,0.94
			c-0.28,0.31-0.55,0.63-0.8,0.94h-22.36c0.25-0.38,0.5-0.71,0.75-0.99c0.25-0.28,0.56-0.61,0.94-0.99l32.79-31.94l-28.37-27.53
			c-0.75-0.63-1.35-1.32-1.79-2.07h23.68c0.44,0.69,0.97,1.38,1.6,2.07l16.82,17.1l17.76-17.1c0.38-0.31,0.71-0.66,0.99-1.03
			c0.28-0.38,0.55-0.72,0.8-1.03H447.94z"/>
		<path class="st2" d="M474.25,98.33c-3.88,0-7.16-0.42-9.82-1.27s-4.79-2.13-6.39-3.85s-2.74-3.88-3.43-6.48
			c-0.69-2.6-1.03-5.62-1.03-9.07V34.82h17.1v41.25c0,2.32,0.39,3.9,1.17,4.74s2.27,1.27,4.46,1.27h44.06v16.25H474.25z"/>
		<path class="st2" d="M593.66,34.82v16.82h-48.29c-1,0-1.5,0.53-1.5,1.6v7.23h49.51v12.21h-49.51v7.7c0,1.13,0.5,1.69,1.5,1.69
			h48.29v16.25h-57.88c-5.95,0-8.93-2.94-8.93-8.83V43.37c0-5.7,3.01-8.55,9.02-8.55H593.66z"/>
		<path class="st2" d="M682.92,95.51c0.25,0.5,0.45,0.97,0.61,1.41c0.16,0.44,0.3,0.91,0.42,1.41h-19.17
			c-0.13-0.44-0.25-0.83-0.38-1.17c-0.12-0.34-0.25-0.67-0.38-0.99l-3.38-7.7h-37.58l-3.29,7.61c-0.13,0.38-0.25,0.75-0.38,1.13
			c-0.12,0.38-0.22,0.75-0.28,1.13h-19.64c0.12-0.5,0.27-0.97,0.42-1.41c0.15-0.44,0.36-0.91,0.61-1.41l22.74-50.36
			c1.81-3.95,4.2-6.89,7.14-8.83c2.95-1.94,6.7-2.91,11.28-2.91c4.45,0,8.16,0.97,11.13,2.91c2.97,1.94,5.37,4.89,7.19,8.83
			L682.92,95.51z M654.45,74.47l-9.77-22.74c-0.31-0.69-0.72-1.19-1.22-1.5c-0.5-0.31-1.07-0.47-1.69-0.47
			c-0.56,0-1.1,0.14-1.6,0.42c-0.5,0.28-0.91,0.8-1.22,1.55l-9.68,22.74H654.45z"/>
		<path class="st2" d="M727.83,34.82c5.13,0,9.63,0.74,13.48,2.21c3.85,1.47,7.19,3.52,10.01,6.15c3.2,2.95,5.7,6.42,7.52,10.43
			c1.82,4.01,2.72,8.33,2.72,12.97c0,4.2-0.72,8.11-2.16,11.74c-1.44,3.63-3.45,6.86-6.01,9.68c-2.94,3.19-6.51,5.72-10.71,7.56
			c-4.2,1.85-9.15,2.77-14.85,2.77h-34.29c-2.76,0-4.13-1.35-4.13-4.04V38.76c0-2.63,1.38-3.95,4.13-3.95H727.83z M707.63,51.64
			c-0.81,0-1.22,0.44-1.22,1.32v27.34c0,0.88,0.41,1.32,1.22,1.32h20.2c3.01,0,5.54-0.44,7.61-1.32c2.07-0.88,3.79-2.07,5.17-3.57
			c1.25-1.32,2.22-2.83,2.91-4.56c0.69-1.72,1.04-3.55,1.04-5.5c0-2.13-0.42-4.13-1.27-6.01s-1.99-3.51-3.43-4.89
			c-1.38-1.25-3.01-2.25-4.88-3.01s-4.26-1.13-7.14-1.13H707.63z"/>
	</g>
</g>
</svg>
