<svg xmlns="http://www.w3.org/2000/svg" xmlns:xlink="http://www.w3.org/1999/xlink" version="1.1" x="0px" y="0px" viewBox="0 0 64 80" style="enable-background:new 0 0 64 64;" xml:space="preserve"><style type="text/css">
	.st0{display:none;}
	.st1{display:inline;}
	.st2{fill:none;stroke:#B3B3B3;stroke-width:0.1;stroke-miterlimit:10;}
</style><g class="st0"><g class="st1"><rect x="2" y="2" class="st2" width="60" height="60"/><line class="st2" x1="32" y1="2" x2="32" y2="62"/><line class="st2" x1="62" y1="32" x2="2" y2="32"/><line class="st2" x1="2" y1="2" x2="62" y2="62"/><rect x="10" y="10" class="st2" width="44" height="44"/><line class="st2" x1="62" y1="2" x2="2" y2="62"/><line class="st2" x1="2" y1="32" x2="32" y2="2"/><line class="st2" x1="32" y1="2" x2="62" y2="32"/><line class="st2" x1="62" y1="32" x2="32" y2="62"/><line class="st2" x1="32" y1="62" x2="2" y2="32"/><circle class="st2" cx="32" cy="32" r="21"/></g></g><path d="M17,27c0.6,0,1-0.4,1-1v-2c0-0.6-0.4-1-1-1h-6c-0.6,0-1,0.4-1,1v2c0,0.6,0.4,1,1,1h1v15h-1c-0.6,0-1,0.4-1,1v2  c0,0.6,0.4,1,1,1h6c0.6,0,1-0.4,1-1v-2c0-0.6-0.4-1-1-1h-1V27H17z"/><path d="M53,27c0.6,0,1-0.4,1-1v-2c0-0.6-0.4-1-1-1h-6c-0.6,0-1,0.4-1,1v2c0,0.6,0.4,1,1,1h1v15h-1c-0.6,0-1,0.4-1,1v2  c0,0.6,0.4,1,1,1h6c0.6,0,1-0.4,1-1v-2c0-0.6-0.4-1-1-1h-1V27H53z"/><path d="M32,2L4,17v4h56v-4L32,2z M32,15c-2.2,0-4-1.8-4-4s1.8-4,4-4s4,1.8,4,4S34.2,15,32,15z"/><path d="M32,36c-7.2,0-13,5.8-13,13s5.8,13,13,13s13-5.8,13-13S39.2,36,32,36z M32,60c-6.1,0-11-4.9-11-11s4.9-11,11-11  s11,4.9,11,11S38.1,60,32,60z"/><path d="M17.9,54H4v4h16C19.1,56.8,18.4,55.4,17.9,54z"/><path d="M46.1,54c-0.5,1.4-1.2,2.8-2.1,4h16v-4H46.1z"/><path d="M17,49c0-0.3,0-0.7,0.1-1H7v4h10.3C17.1,51,17,50,17,49z"/><path d="M46.9,48c0,0.3,0.1,0.7,0.1,1c0,1-0.1,2-0.3,3H57v-4H46.9z"/><path d="M41,23h-6c-0.6,0-1,0.4-1,1v2c0,0.6,0.4,1,1,1h1v7.6c1.4,0.4,2.8,1,4,1.7V27h1c0.6,0,1-0.4,1-1v-2C42,23.4,41.6,23,41,23z"/><path d="M29,23h-6c-0.6,0-1,0.4-1,1v2c0,0.6,0.4,1,1,1h1v9.3c1.2-0.7,2.6-1.3,4-1.7V27h1c0.6,0,1-0.4,1-1v-2C30,23.4,29.6,23,29,23z  "/><polygon points="40.9,45 34,41 34,44 23,44 23,46 34,46 34,49 "/><polygon points="41,52 30,52 30,49 23.1,53 30,57 30,54 41,54 "/><text x="0" y="79" fill="#000000" font-size="5px" font-weight="bold" font-family="'Helvetica Neue', Helvetica, Arial-Unicode, Arial, Sans-serif">Created by I Putu Kharismayadi</text><text x="0" y="84" fill="#000000" font-size="5px" font-weight="bold" font-family="'Helvetica Neue', Helvetica, Arial-Unicode, Arial, Sans-serif">from the Noun Project</text></svg>