<?xml version="1.0" encoding="UTF-8"?>
<!DOCTYPE svg PUBLIC "-//W3C//DTD SVG 1.1//EN" "http://www.w3.org/Graphics/SVG/1.1/DTD/svg11.dtd">
<svg xmlns="http://www.w3.org/2000/svg" version="1.1" width="330px" height="142px" style="shape-rendering:geometricPrecision; text-rendering:geometricPrecision; image-rendering:optimizeQuality; fill-rule:evenodd; clip-rule:evenodd" xmlns:xlink="http://www.w3.org/1999/xlink">
<g><path style="opacity:0.037" fill="#211e1e" d="M 42.5,17.5 C 46.5138,17.3345 50.5138,17.5012 54.5,18C 55.9308,18.4652 57.0975,19.2986 58,20.5C 59.3041,26.4229 59.8041,32.4229 59.5,38.5C 67.729,40.2271 74.229,44.5605 79,51.5C 88.7786,39.2124 101.279,35.379 116.5,40C 122.074,42.1939 126.574,45.6939 130,50.5C 133.893,46.2702 138.059,42.4368 142.5,39C 144.833,38.3333 147.167,38.3333 149.5,39C 152.98,41.6458 156.314,44.4791 159.5,47.5C 162.323,44.5116 165.323,41.6783 168.5,39C 171.167,38.3333 173.833,38.3333 176.5,39C 179.037,41.872 181.87,44.372 185,46.5C 187.527,43.973 190.027,41.473 192.5,39C 195.167,38.3333 197.833,38.3333 200.5,39C 204.369,42.5338 207.869,46.3672 211,50.5C 211.667,53.5 211.667,56.5 211,59.5C 204.568,64.5879 205.068,68.5879 212.5,71.5C 215.198,70.8024 216.864,69.1357 217.5,66.5C 216.242,63.4005 214.742,60.4005 213,57.5C 212.333,55.8333 212.333,54.1667 213,52.5C 214.944,48.8901 217.277,45.5568 220,42.5C 223.05,38.8697 226.883,37.703 231.5,39C 235.34,41.6744 238.673,44.8411 241.5,48.5C 253.058,36.9273 266.558,34.2607 282,40.5C 301.702,32.9992 316.702,38.3325 327,56.5C 327.667,69.8333 327.667,83.1667 327,96.5C 325.202,98.9725 322.868,100.639 320,101.5C 314.312,101.802 308.479,101.302 302.5,100C 300.383,98.2691 298.883,96.1024 298,93.5C 297.832,84.4816 297.332,75.4816 296.5,66.5C 295.928,76.8885 295.095,87.2218 294,97.5C 291.958,99.604 289.458,100.771 286.5,101C 280.037,102.02 273.87,101.187 268,98.5C 267.667,97.5 267.333,96.5 267,95.5C 266.974,85.6731 266.308,76.0064 265,66.5C 263.691,76.3404 263.025,86.3404 263,96.5C 261.375,99.147 259.041,100.814 256,101.5C 250.645,101.783 245.145,101.283 239.5,100C 236.836,97.8421 235.336,95.0088 235,91.5C 222.889,101.665 209.723,103.165 195.5,96C 192.667,93.8333 189.833,91.6667 187,89.5C 183.796,92.3688 180.963,95.5354 178.5,99C 175.298,100.483 171.964,100.817 168.5,100C 165.62,96.7829 162.453,93.9495 159,91.5C 156.194,94.6336 153.028,97.467 149.5,100C 146.833,100.667 144.167,100.667 141.5,100C 139.667,98.1667 137.833,96.3333 136,94.5C 135.208,96.5873 134.041,98.4207 132.5,100C 121.833,100.667 111.167,100.667 100.5,100C 91.6848,97.5163 84.5181,92.683 79,85.5C 72.8208,95.8418 63.6542,100.842 51.5,100.5C 52.3594,106.588 50.6928,111.755 46.5,116C 39.5,116.667 32.5,116.667 25.5,116C 23.9512,114.786 22.7845,113.286 22,111.5C 21.5001,99.8381 21.3335,88.1714 21.5,76.5C 16.4889,76.6659 11.4889,76.4993 6.5,76C 2.35243,74.0754 0.352433,70.742 0.5,66C 3.35093,39.9937 17.3509,23.827 42.5,17.5 Z M 52.5,67.5 C 55.0182,68.7595 54.8515,70.0928 52,71.5C 50.4132,70.154 50.5798,68.8206 52.5,67.5 Z M 136.5,67.5 C 138.368,68.7861 138.534,70.1195 137,71.5C 136.51,70.2068 136.343,68.8734 136.5,67.5 Z M 105.5,67.5 C 106.776,68.3864 106.776,69.3864 105.5,70.5C 104.438,69.5754 104.438,68.5754 105.5,67.5 Z"/></g>
<g><path style="opacity:1" fill="#f0f0f0" d="M 131.5,61.5 C 131.5,72.5 131.5,83.5 131.5,94.5C 131.389,95.1174 131.056,95.6174 130.5,96C 124.5,96.6667 118.5,96.6667 112.5,96C 97.0088,97.8146 85.8421,91.3146 79,76.5C 73.6157,91.0212 63.2823,97.3545 48,95.5C 47.6667,100.5 47.3333,105.5 47,110.5C 46.5,111 46,111.5 45.5,112C 39.5,112.667 33.5,112.667 27.5,112C 26.6195,111.292 25.9528,110.458 25.5,109.5C 25.8324,96.8158 25.4991,84.1492 24.5,71.5C 23.8933,71.6236 23.56,71.9569 23.5,72.5C 17.8236,72.6661 12.1569,72.4994 6.5,72C 4.9409,70.0042 4.27423,67.6709 4.5,65C 8.41191,37.0862 24.4119,22.4195 52.5,21C 53.4162,21.3742 54.2496,21.8742 55,22.5C 55.4995,28.8246 55.6662,35.1579 55.5,41.5C 67.2593,42.9646 75.0926,49.2979 79,60.5C 89.2796,40.2972 104.113,36.1305 123.5,48C 127.659,51.6494 130.326,56.1494 131.5,61.5 Z M 52.5,67.5 C 50.5798,68.8206 50.4132,70.154 52,71.5C 54.8515,70.0928 55.0182,68.7595 52.5,67.5 Z M 105.5,67.5 C 104.438,68.5754 104.438,69.5754 105.5,70.5C 106.776,69.3864 106.776,68.3864 105.5,67.5 Z"/></g>
<g><path style="opacity:1" fill="#a41f21" d="M 22.5,65.5 C 18.4865,67.3342 14.1532,68.0008 9.5,67.5C 9.5,65.5 9.5,63.5 9.5,61.5C 12.605,42.893 23.2717,31.0597 41.5,26C 44.8168,25.5017 48.1501,25.335 51.5,25.5C 51.5,30.1667 51.5,34.8333 51.5,39.5C 35.5258,41.1412 25.8592,49.8079 22.5,65.5 Z"/></g>
<g><path style="opacity:1" fill="#eeeeee" d="M 185.5,80.5 C 185.662,82.5273 185.495,84.5273 185,86.5C 181.833,89.6667 178.667,92.8333 175.5,96C 173.5,96.6667 171.5,96.6667 169.5,96C 166.654,91.8209 163.154,88.3209 159,85.5C 155.23,89.9452 150.897,93.6119 146,96.5C 141.149,93.6655 136.816,89.9988 133,85.5C 132.819,88.6946 132.319,91.6946 131.5,94.5C 131.5,83.5 131.5,72.5 131.5,61.5C 132.328,67.9874 132.828,74.654 133,81.5C 136.513,77.322 140.013,73.1553 143.5,69C 140.382,64.8789 136.882,61.0456 133,57.5C 132.333,55.8333 132.333,54.1667 133,52.5C 136.5,49 140,45.5 143.5,42C 145.167,41.3333 146.833,41.3333 148.5,42C 152.015,45.6824 155.682,49.1824 159.5,52.5C 163.567,48.4266 167.9,44.7599 172.5,41.5C 177.1,44.7599 181.433,48.4266 185.5,52.5C 188.196,47.8041 191.863,44.1375 196.5,41.5C 202.93,44.7333 206.763,49.7333 208,56.5C 206.667,58.5 205.333,60.5 204,62.5C 202.669,72.1666 206.836,75.9999 216.5,74C 220.36,71.4521 221.86,67.9521 221,63.5C 219.09,60.844 217.59,58.0107 216.5,55C 216.625,53.3732 217.125,51.8732 218,50.5C 220.872,47.9634 223.372,45.1301 225.5,42C 229.672,41.1316 232.838,42.6316 235,46.5C 237,49.8333 239,53.1667 241,56.5C 250.978,40.4176 264.645,36.4176 282,44.5C 300.308,36.4075 314.308,41.0741 324,58.5C 324.667,70.5 324.667,82.5 324,94.5C 323.5,95 323,95.5 322.5,96C 316.167,96.6667 309.833,96.6667 303.5,96C 303,95.5 302.5,95 302,94.5C 301.667,84.5 301.333,74.5 301,64.5C 297.706,61.6888 294.706,62.0221 292,65.5C 291.821,75.7435 291.321,85.9102 290.5,96C 283.918,96.81 277.418,96.6433 271,95.5C 269.714,85.2651 269.048,74.9317 269,64.5C 266.034,61.7348 263.367,62.0682 261,65.5C 260.667,75.1667 260.333,84.8333 260,94.5C 259.5,95 259,95.5 258.5,96C 252.833,96.6667 247.167,96.6667 241.5,96C 241,95.5 240.5,95 240,94.5C 239.667,89.8333 239.333,85.1667 239,80.5C 226.77,97.9994 211.603,101.166 193.5,90C 190.22,87.2251 187.554,84.0584 185.5,80.5 Z M 136.5,67.5 C 136.343,68.8734 136.51,70.2068 137,71.5C 138.534,70.1195 138.368,68.7861 136.5,67.5 Z"/></g>
<g><path style="opacity:1" fill="#0a0b0c" d="M 260.5,45.5 C 268.321,44.5809 275.487,46.2476 282,50.5C 291.679,44.0472 301.512,43.8806 311.5,50C 314.762,52.592 317.262,55.7587 319,59.5C 319.5,70.495 319.667,81.495 319.5,92.5C 315.167,92.5 310.833,92.5 306.5,92.5C 306.666,82.8276 306.5,73.1609 306,63.5C 299.953,56.8417 293.953,56.8417 288,63.5C 287.5,73.1609 287.334,82.8276 287.5,92.5C 283.167,92.5 278.833,92.5 274.5,92.5C 274.666,82.8276 274.5,73.1609 274,63.5C 268.169,56.8818 262.169,56.8818 256,63.5C 255.5,73.1609 255.334,82.8276 255.5,92.5C 251.5,92.5 247.5,92.5 243.5,92.5C 243.334,82.1613 243.5,71.828 244,61.5C 246.812,53.1848 252.312,47.8514 260.5,45.5 Z"/></g>
<g><path style="opacity:1" fill="#07090a" d="M 42.5,107.5 C 38.5,107.5 34.5,107.5 30.5,107.5C 30.5,92.8333 30.5,78.1667 30.5,63.5C 34.7689,49.8533 44.1023,44.0199 58.5,46C 75.3291,53.8257 79.4958,65.9924 71,82.5C 66.2815,89.1103 59.7815,92.4436 51.5,92.5C 51.5,88.1667 51.5,83.8333 51.5,79.5C 61.2993,78.2252 64.7993,72.8919 62,63.5C 57.4537,59.2512 52.2871,58.4179 46.5,61C 44.9512,62.214 43.7845,63.714 43,65.5C 42.5001,79.496 42.3334,93.496 42.5,107.5 Z M 52.5,67.5 C 50.5798,68.8206 50.4132,70.154 52,71.5C 54.8515,70.0928 55.0182,68.7595 52.5,67.5 Z"/></g>
<g><path style="opacity:1" fill="#070909" d="M 98.5,46.5 C 111.916,44.2893 121.416,49.2893 127,61.5C 127.5,71.828 127.666,82.1613 127.5,92.5C 123.5,92.5 119.5,92.5 115.5,92.5C 115.666,82.8276 115.5,73.1609 115,63.5C 109,58.1667 103,58.1667 97,63.5C 94.2541,71.6283 97.0874,76.9616 105.5,79.5C 106.492,83.7828 106.826,88.1161 106.5,92.5C 87.2528,88.7604 80.0861,77.4271 85,58.5C 87.85,52.5144 92.35,48.5144 98.5,46.5 Z M 105.5,67.5 C 104.438,68.5754 104.438,69.5754 105.5,70.5C 106.776,69.3864 106.776,68.3864 105.5,67.5 Z"/></g>
<g><path style="opacity:1" fill="#090a0b" d="M 195.5,46.5 C 198.404,48.7368 201.07,51.4034 203.5,54.5C 195.857,64.1716 197.191,72.3382 207.5,79C 218.109,80.8652 224.442,76.5319 226.5,66C 225.673,62.5122 224.173,59.3456 222,56.5C 222.398,52.3954 224.398,49.0621 228,46.5C 238.669,56.8335 240.336,68.5002 233,81.5C 218.675,96.466 204.675,96.1327 191,80.5C 185.122,68.0871 186.622,56.7538 195.5,46.5 Z"/></g>
<g><path style="opacity:1" fill="#090a0b" d="M 145.5,46.5 C 150.146,50.8115 154.813,55.1449 159.5,59.5C 163.833,55.1667 168.167,50.8333 172.5,46.5C 176.512,48.9703 179.012,52.3036 180,56.5C 175.696,60.4577 171.863,64.791 168.5,69.5C 172.651,74.1518 176.985,78.6518 181.5,83C 178.616,86.5856 175.283,89.2522 171.5,91C 167.606,86.6953 163.606,82.5287 159.5,78.5C 154.482,82.6846 149.982,87.3513 146,92.5C 142.414,89.6159 139.748,86.2826 138,82.5C 142.283,78.0951 146.45,73.5951 150.5,69C 145.985,64.6518 141.651,60.1518 137.5,55.5C 140.189,52.4802 142.856,49.4802 145.5,46.5 Z"/></g>
<g><path style="opacity:0.041" fill="#222020" d="M 50.5,63.5 C 58.4902,63.0859 60.4902,66.2525 56.5,73C 53.8276,73.8344 51.161,74.6677 48.5,75.5C 47.343,72.2156 47.1764,68.8823 48,65.5C 48.9947,64.9341 49.828,64.2674 50.5,63.5 Z M 52.5,67.5 C 50.5798,68.8206 50.4132,70.154 52,71.5C 54.8515,70.0928 55.0182,68.7595 52.5,67.5 Z"/></g>
<g><path style="opacity:1" fill="#474445" d="M 30.5,63.5 C 30.5,78.1667 30.5,92.8333 30.5,107.5C 34.5,107.5 38.5,107.5 42.5,107.5C 38.3656,108.485 34.0323,108.818 29.5,108.5C 29.1706,93.324 29.5039,78.324 30.5,63.5 Z"/></g>
<g><path style="opacity:1" fill="#b15d5d" d="M 9.5,61.5 C 9.5,63.5 9.5,65.5 9.5,67.5C 14.1532,68.0008 18.4865,67.3342 22.5,65.5C 22.5,66.5 22.5,67.5 22.5,68.5C 17.8333,68.5 13.1667,68.5 8.5,68.5C 8.19845,65.9407 8.53178,63.6074 9.5,61.5 Z"/></g>
<g><path style="opacity:0.129" fill="#1e1c1c" d="M 103.5,63.5 C 106.044,63.1043 108.211,63.771 110,65.5C 110.667,69.1667 110.667,72.8333 110,76.5C 107.441,75.0201 104.774,73.6867 102,72.5C 99.7879,69.0213 100.288,66.0213 103.5,63.5 Z M 105.5,67.5 C 104.438,68.5754 104.438,69.5754 105.5,70.5C 106.776,69.3864 106.776,68.3864 105.5,67.5 Z"/></g>
<g><path style="opacity:0.112" fill="#211f1f" d="M 185.5,80.5 C 181.503,77.0289 177.837,73.1955 174.5,69C 177,66.5 179.5,64 182,61.5C 182.004,68.0889 183.171,74.4222 185.5,80.5 Z"/></g>
<g><path style="opacity:0.482" fill="#716f6f" d="M 23.5,72.5 C 23.56,71.9569 23.8933,71.6236 24.5,71.5C 25.4991,84.1492 25.8324,96.8158 25.5,109.5C 24.8333,97.1667 24.1667,84.8333 23.5,72.5 Z"/></g>
</svg>
