<?xml version="1.0" encoding="utf-8"?>
<!-- Generator: Adobe Illustrator 27.1.1, SVG Export Plug-In . SVG Version: 6.00 Build 0)  -->
<svg version="1.1" id="Layer_1" xmlns="http://www.w3.org/2000/svg" xmlns:xlink="http://www.w3.org/1999/xlink" x="0px" y="0px"
	 viewBox="0 0 123.07 131.74" style="enable-background:new 0 0 123.07 131.74;" xml:space="preserve">
<style type="text/css">
	.st0{fill:#4F75F2;}
	.st1{fill:#D89F42;}
</style>
<g>
	<path class="st0" d="M64.88,32.42L94.81,2.55H1.39L5.2,5.66l13.26,10.85l7.81,6.39c3.18,2.6,5.03,6.5,5.03,10.61v32.35l32.95-32.82
		L64.88,32.42z"/>
	<path class="st0" d="M64.25,98.69L31.29,65.87v32.35c0,4.11-1.85,8.01-5.03,10.61l-7.81,6.39L5.2,126.08l-3.81,3.11h93.42
		L64.88,99.32L64.25,98.69z"/>
	<path class="st1" d="M105.24,31.39L74.06,62.48c-1.85,1.84-1.85,4.84,0,6.68l31.18,31.17c6.07,6.07,16.44,1.77,16.44-6.81V38.21
		C121.68,29.64,111.31,25.34,105.24,31.39z"/>
</g>
</svg>
